<?xml version="1.0" encoding="UTF-8" standalone="no"?><svg xmlns="http://www.w3.org/2000/svg" xmlns:xlink="http://www.w3.org/1999/xlink" contentStyleType="text/css" height="853px" preserveAspectRatio="none" style="width:1566px;height:853px;background:#FCF9EA;" version="1.1" viewBox="0 0 1566 853" width="1566px" zoomAndPan="magnify"><defs/><g><rect fill="#FCF9EA" height="94.6094" rx="10" ry="10" style="stroke:#00000000;stroke-width:1.0;" width="379" x="592.5" y="10"/><text fill="#F8A978" font-family="Arial Black" font-size="30" font-weight="bold" lengthAdjust="spacing" textLength="369" x="597.5" y="48.0176">SEQUENCE DIAGRAM</text><text fill="#F8A978" font-family="Arial Black" font-size="30" font-weight="bold" lengthAdjust="spacing" textLength="11" x="776.5" y="90.3223"> </text><rect fill="#FFFFFF" height="563.9219" style="stroke:#181818;stroke-width:1.0;" width="10" x="72.5" y="198.2188"/><rect fill="#FFFFFF" height="532.5703" style="stroke:#181818;stroke-width:1.0;" width="10" x="393.5" y="220.5703"/><rect fill="#FFFFFF" height="464.8672" style="stroke:#181818;stroke-width:1.0;" width="10" x="562.5" y="250.9219"/><rect fill="#FFFFFF" height="434.5156" style="stroke:#181818;stroke-width:1.0;" width="10" x="760.5" y="281.2734"/><rect fill="#FFFFFF" height="30" style="stroke:#181818;stroke-width:1.0;" width="10" x="1184.5" y="341.9766"/><rect fill="#FFFFFF" height="60.3516" style="stroke:#181818;stroke-width:1.0;" width="10" x="1354" y="402.3281"/><rect fill="#FFFFFF" height="30" style="stroke:#181818;stroke-width:1.0;" width="10" x="1499.5" y="432.6797"/><line style="stroke:#181818;stroke-width:0.5;stroke-dasharray:5.0,5.0;" x1="77" x2="77" y1="188.2188" y2="771.1406"/><line style="stroke:#181818;stroke-width:0.5;stroke-dasharray:5.0,5.0;" x1="398.5" x2="398.5" y1="188.2188" y2="771.1406"/><line style="stroke:#181818;stroke-width:0.5;stroke-dasharray:5.0,5.0;" x1="567.5" x2="567.5" y1="188.2188" y2="771.1406"/><line style="stroke:#181818;stroke-width:0.5;stroke-dasharray:5.0,5.0;" x1="765" x2="765" y1="188.2188" y2="771.1406"/><line style="stroke:#181818;stroke-width:0.5;stroke-dasharray:5.0,5.0;" x1="1189" x2="1189" y1="188.2188" y2="771.1406"/><line style="stroke:#181818;stroke-width:0.5;stroke-dasharray:5.0,5.0;" x1="1359" x2="1359" y1="188.2188" y2="771.1406"/><line style="stroke:#181818;stroke-width:0.5;stroke-dasharray:5.0,5.0;" x1="1504" x2="1504" y1="188.2188" y2="771.1406"/><text fill="#000000" font-family="sans-serif" font-size="14" lengthAdjust="spacing" textLength="139" x="5" y="185.1426">Warehouse Employee</text><ellipse cx="77.5" cy="119.1094" fill="#E2E2F0" rx="8" ry="8" style="stroke:#181818;stroke-width:0.5;"/><path d="M77.5,127.1094 L77.5,154.1094 M64.5,135.1094 L90.5,135.1094 M77.5,154.1094 L64.5,169.1094 M77.5,154.1094 L90.5,169.1094 " fill="none" style="stroke:#181818;stroke-width:0.5;"/><text fill="#000000" font-family="sans-serif" font-size="14" lengthAdjust="spacing" textLength="139" x="5" y="784.6738">Warehouse Employee</text><ellipse cx="77.5" cy="796.25" fill="#E2E2F0" rx="8" ry="8" style="stroke:#181818;stroke-width:0.5;"/><path d="M77.5,804.25 L77.5,831.25 M64.5,812.25 L90.5,812.25 M77.5,831.25 L64.5,846.25 M77.5,831.25 L90.5,846.25 " fill="none" style="stroke:#181818;stroke-width:0.5;"/><rect fill="#E2E2F0" height="31.6094" rx="10" ry="10" style="stroke:#181818;stroke-width:0.5;" width="134" x="331.5" y="155.6094"/><text fill="#000000" font-family="sans-serif" font-size="14" lengthAdjust="spacing" textLength="120" x="338.5" y="177.1426">:ShowDashboardUI</text><rect fill="#E2E2F0" height="31.6094" rx="10" ry="10" style="stroke:#181818;stroke-width:0.5;" width="134" x="331.5" y="770.1406"/><text fill="#000000" font-family="sans-serif" font-size="14" lengthAdjust="spacing" textLength="120" x="338.5" y="791.6738">:ShowDashboardUI</text><rect fill="#E2E2F0" height="31.6094" rx="10" ry="10" style="stroke:#181818;stroke-width:0.5;" width="184" x="475.5" y="155.6094"/><text fill="#000000" font-family="sans-serif" font-size="14" lengthAdjust="spacing" textLength="170" x="482.5" y="177.1426">:ShowDashboardController</text><rect fill="#E2E2F0" height="31.6094" rx="10" ry="10" style="stroke:#181818;stroke-width:0.5;" width="184" x="475.5" y="770.1406"/><text fill="#000000" font-family="sans-serif" font-size="14" lengthAdjust="spacing" textLength="170" x="482.5" y="791.6738">:ShowDashboardController</text><rect fill="#E2E2F0" height="31.6094" rx="10" ry="10" style="stroke:#181818;stroke-width:0.5;" width="149" x="691" y="155.6094"/><text fill="#000000" font-family="sans-serif" font-size="14" lengthAdjust="spacing" textLength="135" x="698" y="177.1426">:HttpServerAgvStatus</text><rect fill="#E2E2F0" height="31.6094" rx="10" ry="10" style="stroke:#181818;stroke-width:0.5;" width="149" x="691" y="770.1406"/><text fill="#000000" font-family="sans-serif" font-size="14" lengthAdjust="spacing" textLength="135" x="698" y="791.6738">:HttpServerAgvStatus</text><rect fill="#E2E2F0" height="31.6094" rx="10" ry="10" style="stroke:#181818;stroke-width:0.5;" width="159" x="1110" y="155.6094"/><text fill="#000000" font-family="sans-serif" font-size="14" lengthAdjust="spacing" textLength="145" x="1117" y="177.1426">:WarehouseRepository</text><rect fill="#E2E2F0" height="31.6094" rx="10" ry="10" style="stroke:#181818;stroke-width:0.5;" width="159" x="1110" y="770.1406"/><text fill="#000000" font-family="sans-serif" font-size="14" lengthAdjust="spacing" textLength="145" x="1117" y="791.6738">:WarehouseRepository</text><rect fill="#E2E2F0" height="31.6094" rx="10" ry="10" style="stroke:#181818;stroke-width:0.5;" width="160" x="1279" y="155.6094"/><text fill="#000000" font-family="sans-serif" font-size="14" lengthAdjust="spacing" textLength="146" x="1286" y="177.1426">:HttpAgvStatusRequest</text><rect fill="#E2E2F0" height="31.6094" rx="10" ry="10" style="stroke:#181818;stroke-width:0.5;" width="160" x="1279" y="770.1406"/><text fill="#000000" font-family="sans-serif" font-size="14" lengthAdjust="spacing" textLength="146" x="1286" y="791.6738">:HttpAgvStatusRequest</text><rect fill="#E2E2F0" height="31.6094" rx="10" ry="10" style="stroke:#181818;stroke-width:0.5;" width="111" x="1449" y="155.6094"/><text fill="#000000" font-family="sans-serif" font-size="14" lengthAdjust="spacing" textLength="97" x="1456" y="177.1426">:HTTPMessage</text><rect fill="#E2E2F0" height="31.6094" rx="10" ry="10" style="stroke:#181818;stroke-width:0.5;" width="111" x="1449" y="770.1406"/><text fill="#000000" font-family="sans-serif" font-size="14" lengthAdjust="spacing" textLength="97" x="1456" y="791.6738">:HTTPMessage</text><rect fill="#FFFFFF" height="563.9219" style="stroke:#181818;stroke-width:1.0;" width="10" x="72.5" y="198.2188"/><rect fill="#FFFFFF" height="532.5703" style="stroke:#181818;stroke-width:1.0;" width="10" x="393.5" y="220.5703"/><rect fill="#FFFFFF" height="464.8672" style="stroke:#181818;stroke-width:1.0;" width="10" x="562.5" y="250.9219"/><rect fill="#FFFFFF" height="434.5156" style="stroke:#181818;stroke-width:1.0;" width="10" x="760.5" y="281.2734"/><rect fill="#FFFFFF" height="30" style="stroke:#181818;stroke-width:1.0;" width="10" x="1184.5" y="341.9766"/><rect fill="#FFFFFF" height="60.3516" style="stroke:#181818;stroke-width:1.0;" width="10" x="1354" y="402.3281"/><rect fill="#FFFFFF" height="30" style="stroke:#181818;stroke-width:1.0;" width="10" x="1499.5" y="432.6797"/><polygon fill="#FFC5A1" points="381.5,216.5703,391.5,220.5703,381.5,224.5703,385.5,220.5703" style="stroke:#FFC5A1;stroke-width:1.0;"/><line style="stroke:#FFC5A1;stroke-width:1.0;" x1="82.5" x2="387.5" y1="220.5703" y2="220.5703"/><text fill="#000000" font-family="sans-serif" font-size="13" font-weight="bold" lengthAdjust="spacing" textLength="7" x="89.5" y="215.7139">1</text><text fill="#000000" font-family="sans-serif" font-size="13" lengthAdjust="spacing" textLength="177" x="100.5" y="215.7139">Requires to see the dashboard</text><polygon fill="#FFC5A1" points="550.5,246.9219,560.5,250.9219,550.5,254.9219,554.5,250.9219" style="stroke:#FFC5A1;stroke-width:1.0;"/><line style="stroke:#FFC5A1;stroke-width:1.0;" x1="403.5" x2="556.5" y1="250.9219" y2="250.9219"/><text fill="#000000" font-family="sans-serif" font-size="13" font-weight="bold" lengthAdjust="spacing" textLength="7" x="410.5" y="246.0654">2</text><text fill="#000000" font-family="sans-serif" font-size="13" lengthAdjust="spacing" textLength="100" x="421.5" y="246.0654">showDashboard()</text><polygon fill="#FFC5A1" points="748.5,277.2734,758.5,281.2734,748.5,285.2734,752.5,281.2734" style="stroke:#FFC5A1;stroke-width:1.0;"/><line style="stroke:#FFC5A1;stroke-width:1.0;" x1="572.5" x2="754.5" y1="281.2734" y2="281.2734"/><text fill="#000000" font-family="sans-serif" font-size="13" font-weight="bold" lengthAdjust="spacing" textLength="7" x="579.5" y="276.417">3</text><text fill="#000000" font-family="sans-serif" font-size="13" lengthAdjust="spacing" textLength="158" x="590.5" y="276.417">changeController(controller)</text><polygon fill="#FFC5A1" points="748.5,307.625,758.5,311.625,748.5,315.625,752.5,311.625" style="stroke:#FFC5A1;stroke-width:1.0;"/><line style="stroke:#FFC5A1;stroke-width:1.0;" x1="572.5" x2="754.5" y1="311.625" y2="311.625"/><text fill="#000000" font-family="sans-serif" font-size="13" font-weight="bold" lengthAdjust="spacing" textLength="7" x="579.5" y="306.7686">4</text><text fill="#000000" font-family="sans-serif" font-size="13" lengthAdjust="spacing" textLength="34" x="590.5" y="306.7686">start()</text><polygon fill="#FFC5A1" points="1172.5,337.9766,1182.5,341.9766,1172.5,345.9766,1176.5,341.9766" style="stroke:#FFC5A1;stroke-width:1.0;"/><line style="stroke:#FFC5A1;stroke-width:1.0;" x1="770.5" x2="1178.5" y1="341.9766" y2="341.9766"/><text fill="#000000" font-family="sans-serif" font-size="13" font-weight="bold" lengthAdjust="spacing" textLength="7" x="777.5" y="337.1201">5</text><text fill="#000000" font-family="sans-serif" font-size="13" lengthAdjust="spacing" textLength="43" x="788.5" y="337.1201">findAll()</text><polygon fill="#FFC5A1" points="1342,398.3281,1352,402.3281,1342,406.3281,1346,402.3281" style="stroke:#FFC5A1;stroke-width:1.0;"/><line style="stroke:#FFC5A1;stroke-width:1.0;" x1="770.5" x2="1348" y1="402.3281" y2="402.3281"/><text fill="#000000" font-family="sans-serif" font-size="13" font-weight="bold" lengthAdjust="spacing" textLength="7" x="777.5" y="397.4717">6</text><text fill="#000000" font-family="sans-serif" font-size="13" lengthAdjust="spacing" textLength="26" x="788.5" y="397.4717">run()</text><polygon fill="#FFC5A1" points="1487.5,428.6797,1497.5,432.6797,1487.5,436.6797,1491.5,432.6797" style="stroke:#FFC5A1;stroke-width:1.0;"/><line style="stroke:#FFC5A1;stroke-width:1.0;" x1="1364" x2="1493.5" y1="432.6797" y2="432.6797"/><text fill="#000000" font-family="sans-serif" font-size="13" font-weight="bold" lengthAdjust="spacing" textLength="7" x="1371" y="427.8232">7</text><text fill="#000000" font-family="sans-serif" font-size="13" lengthAdjust="spacing" textLength="93" x="1382" y="427.8232">HTTPMessage()</text><line style="stroke:#FFC5A1;stroke-width:1.0;" x1="770.5" x2="812.5" y1="493.0313" y2="493.0313"/><line style="stroke:#FFC5A1;stroke-width:1.0;" x1="812.5" x2="812.5" y1="493.0313" y2="506.0313"/><line style="stroke:#FFC5A1;stroke-width:1.0;" x1="771.5" x2="812.5" y1="506.0313" y2="506.0313"/><polygon fill="#FFC5A1" points="781.5,502.0313,771.5,506.0313,781.5,510.0313,777.5,506.0313" style="stroke:#FFC5A1;stroke-width:1.0;"/><text fill="#000000" font-family="sans-serif" font-size="13" font-weight="bold" lengthAdjust="spacing" textLength="7" x="777.5" y="488.1748">8</text><text fill="#000000" font-family="sans-serif" font-size="13" lengthAdjust="spacing" textLength="97" x="788.5" y="488.1748">getPersonalInfo()</text><line style="stroke:#FFC5A1;stroke-width:1.0;" x1="770.5" x2="812.5" y1="536.3828" y2="536.3828"/><line style="stroke:#FFC5A1;stroke-width:1.0;" x1="812.5" x2="812.5" y1="536.3828" y2="549.3828"/><line style="stroke:#FFC5A1;stroke-width:1.0;" x1="771.5" x2="812.5" y1="549.3828" y2="549.3828"/><polygon fill="#FFC5A1" points="781.5,545.3828,771.5,549.3828,781.5,553.3828,777.5,549.3828" style="stroke:#FFC5A1;stroke-width:1.0;"/><text fill="#000000" font-family="sans-serif" font-size="13" font-weight="bold" lengthAdjust="spacing" textLength="7" x="777.5" y="531.5264">9</text><text fill="#000000" font-family="sans-serif" font-size="13" lengthAdjust="spacing" textLength="109" x="788.5" y="531.5264">refreshDashboard()</text><line style="stroke:#FFC5A1;stroke-width:1.0;" x1="770.5" x2="812.5" y1="579.7344" y2="579.7344"/><line style="stroke:#FFC5A1;stroke-width:1.0;" x1="812.5" x2="812.5" y1="579.7344" y2="592.7344"/><line style="stroke:#FFC5A1;stroke-width:1.0;" x1="771.5" x2="812.5" y1="592.7344" y2="592.7344"/><polygon fill="#FFC5A1" points="781.5,588.7344,771.5,592.7344,781.5,596.7344,777.5,592.7344" style="stroke:#FFC5A1;stroke-width:1.0;"/><text fill="#000000" font-family="sans-serif" font-size="13" font-weight="bold" lengthAdjust="spacing" textLength="14" x="777.5" y="574.8779">10</text><text fill="#000000" font-family="sans-serif" font-size="13" lengthAdjust="spacing" textLength="168" x="795.5" y="574.8779">buildFirstLine(lengthSquares)</text><line style="stroke:#FFC5A1;stroke-width:1.0;" x1="770.5" x2="812.5" y1="623.0859" y2="623.0859"/><line style="stroke:#FFC5A1;stroke-width:1.0;" x1="812.5" x2="812.5" y1="623.0859" y2="636.0859"/><line style="stroke:#FFC5A1;stroke-width:1.0;" x1="771.5" x2="812.5" y1="636.0859" y2="636.0859"/><polygon fill="#FFC5A1" points="781.5,632.0859,771.5,636.0859,781.5,640.0859,777.5,636.0859" style="stroke:#FFC5A1;stroke-width:1.0;"/><text fill="#000000" font-family="sans-serif" font-size="13" font-weight="bold" lengthAdjust="spacing" textLength="14" x="777.5" y="618.2295">11</text><text fill="#000000" font-family="sans-serif" font-size="13" lengthAdjust="spacing" textLength="353" x="795.5" y="618.2295">buildColumnsMatrix(warehouse,widthSquares,lengthSquares)</text><line style="stroke:#FFC5A1;stroke-width:1.0;" x1="770.5" x2="812.5" y1="666.4375" y2="666.4375"/><line style="stroke:#FFC5A1;stroke-width:1.0;" x1="812.5" x2="812.5" y1="666.4375" y2="679.4375"/><line style="stroke:#FFC5A1;stroke-width:1.0;" x1="771.5" x2="812.5" y1="679.4375" y2="679.4375"/><polygon fill="#FFC5A1" points="781.5,675.4375,771.5,679.4375,781.5,683.4375,777.5,679.4375" style="stroke:#FFC5A1;stroke-width:1.0;"/><text fill="#000000" font-family="sans-serif" font-size="13" font-weight="bold" lengthAdjust="spacing" textLength="14" x="777.5" y="661.5811">12</text><text fill="#000000" font-family="sans-serif" font-size="13" lengthAdjust="spacing" textLength="302" x="795.5" y="661.5811">buildMatrix(warehouse,widthSquares,lengthSquares)</text><line style="stroke:#FFC5A1;stroke-width:1.0;" x1="770.5" x2="812.5" y1="714.7891" y2="714.7891"/><line style="stroke:#FFC5A1;stroke-width:1.0;" x1="812.5" x2="812.5" y1="714.7891" y2="727.7891"/><line style="stroke:#FFC5A1;stroke-width:1.0;" x1="765.5" x2="812.5" y1="727.7891" y2="727.7891"/><polygon fill="#FFC5A1" points="775.5,723.7891,765.5,727.7891,775.5,731.7891,771.5,727.7891" style="stroke:#FFC5A1;stroke-width:1.0;"/><text fill="#000000" font-family="sans-serif" font-size="13" font-weight="bold" lengthAdjust="spacing" textLength="14" x="777.5" y="709.9326">13</text><text fill="#000000" font-family="sans-serif" font-size="13" lengthAdjust="spacing" textLength="382" x="795.5" y="709.9326">addSquares(widthSquares,lengthSquares,s,matrix,columnsMatrix)</text><polygon fill="#FFC5A1" points="93.5,749.1406,83.5,753.1406,93.5,757.1406,89.5,753.1406" style="stroke:#FFC5A1;stroke-width:1.0;"/><line style="stroke:#FFC5A1;stroke-width:1.0;stroke-dasharray:2.0,2.0;" x1="87.5" x2="397.5" y1="753.1406" y2="753.1406"/><text fill="#000000" font-family="sans-serif" font-size="13" font-weight="bold" lengthAdjust="spacing" textLength="14" x="99.5" y="748.2842">14</text><text fill="#000000" font-family="sans-serif" font-size="13" lengthAdjust="spacing" textLength="269" x="117.5" y="748.2842">shows the dashboard or failure of the operation</text><!--MD5=[cc434611ce71018925d5df0a7d46fdd9]
@startuml
' ======= layout =========
skinparam backgroundColor #fcf9ea
skinparam titleBorderRoundCorner 15
skinparam titleFontSize 30
skinparam classAttributeIconSize 0
skinparam titleFontName Arial Black
skinparam titleFontColor #f8a978
skinparam roundcorner 20
skinparam stereotypeCBackgroundColor ffc5a1
skinparam class {

ArrowColor ffc5a1
BorderColor White
BackgroundColor badfdb
}


' ======= title =========
title <b>SEQUENCE DIAGRAM\n
autonumber
actor "Warehouse Employee" as emp

participant ":ShowDashboardUI" as UI
participant ":ShowDashboardController" as Controller
participant ":HttpServerAgvStatus" as Serv
participant ":WarehouseRepository" as REP
participant ":HttpAgvStatusRequest" as HTTP
participant ":HTTPMessage" as Mess


activate emp
emp -> UI : Requires to see the dashboard
activate UI

UI->Controller: showDashboard()
activate Controller
Controller->Serv:  changeController(controller)
activate Serv
Controller->Serv: start()
Serv->REP: findAll()
activate REP
deactivate REP
Serv->HTTP: run()
activate HTTP
HTTP->Mess: HTTPMessage()
activate Mess
deactivate Mess
deactivate HTTP
Serv->Serv: getPersonalInfo()
Serv->Serv: refreshDashboard()
Serv->Serv: buildFirstLine(lengthSquares)
Serv->Serv: buildColumnsMatrix(warehouse,widthSquares,lengthSquares)
Serv->Serv: buildMatrix(warehouse,widthSquares,lengthSquares)
Serv->Serv: addSquares(widthSquares,lengthSquares,s,matrix,columnsMatrix)
deactivate Serv
deactivate Controller
emp <- - UI: shows the dashboard or failure of the operation
deactivate UI





deactivate UI









@enduml

@startuml
skinparam backgroundColor #fcf9ea
skinparam titleBorderRoundCorner 15
skinparam titleFontSize 30
skinparam classAttributeIconSize 0
skinparam titleFontName Arial Black
skinparam titleFontColor #f8a978
skinparam roundcorner 20
skinparam stereotypeCBackgroundColor ffc5a1
skinparam class {

ArrowColor ffc5a1
BorderColor White
BackgroundColor badfdb
}


title <b>SEQUENCE DIAGRAM\n
autonumber
actor "Warehouse Employee" as emp

participant ":ShowDashboardUI" as UI
participant ":ShowDashboardController" as Controller
participant ":HttpServerAgvStatus" as Serv
participant ":WarehouseRepository" as REP
participant ":HttpAgvStatusRequest" as HTTP
participant ":HTTPMessage" as Mess


activate emp
emp -> UI : Requires to see the dashboard
activate UI

UI->Controller: showDashboard()
activate Controller
Controller->Serv:  changeController(controller)
activate Serv
Controller->Serv: start()
Serv->REP: findAll()
activate REP
deactivate REP
Serv->HTTP: run()
activate HTTP
HTTP->Mess: HTTPMessage()
activate Mess
deactivate Mess
deactivate HTTP
Serv->Serv: getPersonalInfo()
Serv->Serv: refreshDashboard()
Serv->Serv: buildFirstLine(lengthSquares)
Serv->Serv: buildColumnsMatrix(warehouse,widthSquares,lengthSquares)
Serv->Serv: buildMatrix(warehouse,widthSquares,lengthSquares)
Serv->Serv: addSquares(widthSquares,lengthSquares,s,matrix,columnsMatrix)
deactivate Serv
deactivate Controller
emp <- - UI: shows the dashboard or failure of the operation
deactivate UI





deactivate UI









@enduml

PlantUML version 1.2022.5(Sat Apr 30 11:55:52 BST 2022)
(GPL source distribution)
Java Runtime: OpenJDK Runtime Environment
JVM: OpenJDK 64-Bit Server VM
Default Encoding: Cp1252
Language: pt
Country: PT
--></g></svg>