<?xml version="1.0" encoding="UTF-8" standalone="no"?><svg xmlns="http://www.w3.org/2000/svg" xmlns:xlink="http://www.w3.org/1999/xlink" contentScriptType="application/ecmascript" contentStyleType="text/css" height="370px" preserveAspectRatio="none" style="width:423px;height:370px;background:#FCF9EA;" version="1.1" viewBox="0 0 423 370" width="423px" zoomAndPan="magnify"><defs><filter height="300%" id="f1r4cr1n4i0ubx" width="300%" x="-1" y="-1"><feGaussianBlur result="blurOut" stdDeviation="2.0"/><feColorMatrix in="blurOut" result="blurOut2" type="matrix" values="0 0 0 0 0 0 0 0 0 0 0 0 0 0 0 0 0 0 .4 0"/><feOffset dx="4.0" dy="4.0" in="blurOut2" result="blurOut3"/><feBlend in="SourceGraphic" in2="blurOut3" mode="normal"/></filter></defs><g><text fill="#888888" font-family="sans-serif" font-size="10" lengthAdjust="spacing" textLength="0" x="210.5" y="10.3809"/><text fill="#888888" font-family="sans-serif" font-size="10" lengthAdjust="spacing" textLength="0" x="210.5" y="22.959"/><text fill="#F8A978" font-family="Arial Black" font-size="30" font-weight="bold" lengthAdjust="spacing" textLength="414" x="2" y="58.1738">US1901 - Class Diagram</text><text fill="#F8A978" font-family="Arial Black" font-size="30" lengthAdjust="spacing" textLength="0" x="214" y="100.4785"/><!--MD5=[30b684850bb7f3ba00e218ee24abf563]
class TcpSrvOrders--><rect codeLine="26" fill="#BADFDB" filter="url(#f1r4cr1n4i0ubx)" height="89.5078" id="TcpSrvOrders" rx="10" ry="10" style="stroke:#FFFFFF;stroke-width:1.5;" width="107" x="158.5" y="116.7656"/><ellipse cx="173.5" cy="132.7656" fill="#FFC5A1" rx="11" ry="11" style="stroke:#FFFFFF;stroke-width:1.0;"/><path d="M175.5,129.2656 Q175.7031,128.7656 175.9375,128.5156 Q176.1719,128.2656 176.4375,128.2656 Q176.9063,128.2656 177.2031,128.5469 Q177.5,128.8281 177.5,129.4844 L177.5,131.0469 Q177.5,131.7031 177.2188,131.9844 Q176.9375,132.2656 176.5,132.2656 Q176.1094,132.2656 175.8594,132.0938 Q175.6094,131.9219 175.5,131.4688 Q175.4531,131.1563 175.2813,130.9844 Q174.9688,130.6563 174.4063,130.4688 Q173.8438,130.2656 173.2813,130.2656 Q172.5781,130.2656 171.9844,130.5469 Q171.4063,130.8281 170.9531,131.4531 Q170.5,132.0781 170.5,132.9375 L170.5,133.8594 Q170.5,134.8906 171.3438,135.5781 Q172.1875,136.2656 173.6875,136.2656 Q174.5781,136.2656 175.2031,136.0625 Q175.5625,135.9531 175.9688,135.5938 Q176.2344,135.3906 176.375,135.3281 Q176.5156,135.2656 176.6875,135.2656 Q177.0156,135.2656 177.25,135.5313 Q177.5,135.7813 177.5,136.1406 Q177.5,136.4844 177.1563,136.8906 Q176.6563,137.4844 175.8594,137.8125 Q174.8125,138.2656 173.5313,138.2656 Q172.0313,138.2656 170.8281,137.6719 Q169.8594,137.2031 169.1719,136.1875 Q168.5,135.1719 168.5,133.9688 L168.5,132.875 Q168.5,131.625 169.0938,130.5313 Q169.7031,129.4375 170.75,128.8594 Q171.8125,128.2656 173,128.2656 Q173.7188,128.2656 174.3438,128.5156 Q174.9688,128.7656 175.5,129.2656 Z " fill="#000000"/><text fill="#000000" font-family="sans-serif" font-size="12" lengthAdjust="spacing" textLength="75" x="187.5" y="137.6758">TcpSrvOrders</text><line style="stroke:#FFFFFF;stroke-width:1.5;" x1="159.5" x2="264.5" y1="148.7656" y2="148.7656"/><line style="stroke:#FFFFFF;stroke-width:1.5;" x1="159.5" x2="264.5" y1="156.7656" y2="156.7656"/><text fill="#000000" font-family="sans-serif" font-size="11" lengthAdjust="spacing" textLength="30" x="164.5" y="172.1846">+run()</text><text fill="#000000" font-family="sans-serif" font-size="11" lengthAdjust="spacing" textLength="67" x="164.5" y="186.0205">+allProducts()</text><text fill="#000000" font-family="sans-serif" font-size="11" lengthAdjust="spacing" textLength="62" x="164.5" y="199.8564">+getSocket()</text><!--MD5=[34df258b459c0f8801a37283e17c78c5]
class ListCatalogService--><rect codeLine="31" fill="#BADFDB" filter="url(#f1r4cr1n4i0ubx)" height="89.5078" id="ListCatalogService" rx="10" ry="10" style="stroke:#FFFFFF;stroke-width:1.5;" width="222" x="101" y="266.7656"/><ellipse cx="156.25" cy="282.7656" fill="#FFC5A1" rx="11" ry="11" style="stroke:#FFFFFF;stroke-width:1.0;"/><path d="M158.25,279.2656 Q158.4531,278.7656 158.6875,278.5156 Q158.9219,278.2656 159.1875,278.2656 Q159.6563,278.2656 159.9531,278.5469 Q160.25,278.8281 160.25,279.4844 L160.25,281.0469 Q160.25,281.7031 159.9688,281.9844 Q159.6875,282.2656 159.25,282.2656 Q158.8594,282.2656 158.6094,282.0938 Q158.3594,281.9219 158.25,281.4688 Q158.2031,281.1563 158.0313,280.9844 Q157.7188,280.6563 157.1563,280.4688 Q156.5938,280.2656 156.0313,280.2656 Q155.3281,280.2656 154.7344,280.5469 Q154.1563,280.8281 153.7031,281.4531 Q153.25,282.0781 153.25,282.9375 L153.25,283.8594 Q153.25,284.8906 154.0938,285.5781 Q154.9375,286.2656 156.4375,286.2656 Q157.3281,286.2656 157.9531,286.0625 Q158.3125,285.9531 158.7188,285.5938 Q158.9844,285.3906 159.125,285.3281 Q159.2656,285.2656 159.4375,285.2656 Q159.7656,285.2656 160,285.5313 Q160.25,285.7813 160.25,286.1406 Q160.25,286.4844 159.9063,286.8906 Q159.4063,287.4844 158.6094,287.8125 Q157.5625,288.2656 156.2813,288.2656 Q154.7813,288.2656 153.5781,287.6719 Q152.6094,287.2031 151.9219,286.1875 Q151.25,285.1719 151.25,283.9688 L151.25,282.875 Q151.25,281.625 151.8438,280.5313 Q152.4531,279.4375 153.5,278.8594 Q154.5625,278.2656 155.75,278.2656 Q156.4688,278.2656 157.0938,278.5156 Q157.7188,278.7656 158.25,279.2656 Z " fill="#000000"/><text fill="#000000" font-family="sans-serif" font-size="12" lengthAdjust="spacing" textLength="103" x="176.75" y="287.6758">ListCatalogService</text><line style="stroke:#FFFFFF;stroke-width:1.5;" x1="102" x2="322" y1="298.7656" y2="298.7656"/><line style="stroke:#FFFFFF;stroke-width:1.5;" x1="102" x2="322" y1="306.7656" y2="306.7656"/><text fill="#000000" font-family="sans-serif" font-size="11" lengthAdjust="spacing" textLength="180" x="107" y="322.1846">+sendMessageToServer(option,data)</text><text fill="#000000" font-family="sans-serif" font-size="11" lengthAdjust="spacing" textLength="210" x="107" y="336.0205">+addProductToShoppingCart(shoppingCart)</text><text fill="#000000" font-family="sans-serif" font-size="11" lengthAdjust="spacing" textLength="62" x="107" y="349.8564">+getSocket()</text><!--MD5=[6b93293dbe887c2eefd82a26815b1082]
link TcpSrvOrders to ListCatalogService--><path codeLine="38" d="M212,206.7656 C212,223.9156 212,243.6356 212,261.2756 " fill="none" id="TcpSrvOrders-to-ListCatalogService" style="stroke:#FFC5A1;stroke-width:1.0;stroke-dasharray:7.0,7.0;"/><polygon fill="#FFC5A1" points="212,266.6756,216,257.6756,212,261.6756,208,257.6756,212,266.6756" style="stroke:#FFC5A1;stroke-width:1.0;"/><!--MD5=[b734dab1ae4b238931e72a65621f08fb]
@startuml
 ' ======= layout =========
 skinparam backgroundColor #fcf9ea
 skinparam titleBorderRoundCorner 15
 skinparam titleFontSize 30
 skinparam classAttributeIconSize 0
 skinparam titleFontName Arial Black
 skinparam titleFontColor #f8a978
 skinparam roundcorner 20
 skinparam stereotypeCBackgroundColor ffc5a1
 skinparam class {

 ArrowColor ffc5a1
 BorderColor White
 BackgroundColor badfdb
 }


 ' ======= title =========
 center header


 endheader
 title <b>US1901 - Class Diagram\n

' ======= classes =========
class TcpSrvOrders{
+run()
+allProducts() 
+getSocket()
}
class ListCatalogService{
+sendMessageToServer(option,data)
+addProductToShoppingCart(shoppingCart)
+getSocket()
}


TcpSrvOrders ..> ListCatalogService

@enduml

@startuml
 skinparam backgroundColor #fcf9ea
 skinparam titleBorderRoundCorner 15
 skinparam titleFontSize 30
 skinparam classAttributeIconSize 0
 skinparam titleFontName Arial Black
 skinparam titleFontColor #f8a978
 skinparam roundcorner 20
 skinparam stereotypeCBackgroundColor ffc5a1
 skinparam class {

 ArrowColor ffc5a1
 BorderColor White
 BackgroundColor badfdb
 }


 center header


 endheader
 title <b>US1901 - Class Diagram\n

class TcpSrvOrders{
+run()
+allProducts() 
+getSocket()
}
class ListCatalogService{
+sendMessageToServer(option,data)
+addProductToShoppingCart(shoppingCart)
+getSocket()
}


TcpSrvOrders ..> ListCatalogService

@enduml

PlantUML version 1.2021.11(Sat Oct 02 14:26:11 BST 2021)
(GPL source distribution)
Java Runtime: OpenJDK Runtime Environment
JVM: OpenJDK 64-Bit Server VM
Default Encoding: Cp1252
Language: pt
Country: PT
--></g></svg>