<?xml version="1.0" encoding="UTF-8" standalone="no"?><svg xmlns="http://www.w3.org/2000/svg" xmlns:xlink="http://www.w3.org/1999/xlink" contentScriptType="application/ecmascript" contentStyleType="text/css" height="467px" preserveAspectRatio="none" style="width:1347px;height:467px;background:#D7E2DD;" version="1.1" viewBox="0 0 1347 467" width="1347px" zoomAndPan="magnify"><defs><filter height="300%" id="f1wij1c2uhwiy8" width="300%" x="-1" y="-1"><feGaussianBlur result="blurOut" stdDeviation="2.0"/><feColorMatrix in="blurOut" result="blurOut2" type="matrix" values="0 0 0 0 0 0 0 0 0 0 0 0 0 0 0 0 0 0 .4 0"/><feOffset dx="4.0" dy="4.0" in="blurOut2" result="blurOut3"/><feBlend in="SourceGraphic" in2="blurOut3" mode="normal"/></filter></defs><g><text fill="#888888" font-family="sans-serif" font-size="10" lengthAdjust="spacing" textLength="0" x="668.5" y="10.3809"/><text fill="#888888" font-family="sans-serif" font-size="10" lengthAdjust="spacing" textLength="0" x="668.5" y="22.959"/><text fill="#000000" font-family="sans-serif" font-size="15" font-weight="bold" lengthAdjust="spacing" textLength="142" x="596" y="40.7275">Built by DeezNuts ©</text><text fill="#D55563" font-family="Arial Black" font-size="30" font-weight="bold" lengthAdjust="spacing" textLength="400" x="467" y="77.041">AGGREGATE PRODUCT</text><text fill="#D55563" font-family="Arial Black" font-size="30" lengthAdjust="spacing" textLength="0" x="672" y="119.3457"/><!--MD5=[7edfcdf0887eb3455c704cc5be16f534]
cluster Aggregate Product--><rect fill="#C3DBD9" filter="url(#f1wij1c2uhwiy8)" height="320" rx="10" ry="10" style="stroke:#FFFFFF;stroke-width:1.5;" width="1328" x="7" y="135.6328"/><path d="M149,135.6328 L149,146.2422 L139,156.2422 L7,156.2422 " fill="none" style="stroke:#FFFFFF;stroke-width:1.5;"/><text fill="#000000" font-family="sans-serif" font-size="14" font-weight="bold" lengthAdjust="spacing" textLength="132" x="10" y="151.166">Aggregate Product</text><!--MD5=[3854aa698878ea31bbbf1eb5d36dee80]
class ProductCatalog--><rect codeLine="43" fill="#86C2BD" filter="url(#f1wij1c2uhwiy8)" height="40" id="ProductCatalog" rx="10" ry="10" style="stroke:#FFFFFF;stroke-width:1.5;" width="117" x="23.5" y="303.6328"/><ellipse cx="38.5" cy="319.6328" fill="#E0A2A4" rx="11" ry="11" style="stroke:#FFFFFF;stroke-width:1.0;"/><path d="M37,320.6328 L37,322.6328 L41,322.6328 L41,321.6328 L41,321.1484 L41.625,320.6328 L42,320.6328 L42.375,320.6328 L43,321.1484 L43,321.6328 L43,324.6328 L35,324.6328 L34.5156,324.6328 L34,324.0078 L34,323.6328 L34,323.2578 L34.5156,322.6328 L35,322.6328 L35,322.6328 L35,316.6328 L35,316.6328 L34.5156,316.6328 L34,316.0078 L34,315.6328 L34,315.2578 L34.5156,314.6328 L35,314.6328 L43,314.6328 L43,317.6328 L43,318.1172 L42.375,318.6328 L42,318.6328 L41.625,318.6328 L41,318.1172 L41,317.6328 L41,316.6328 L37,316.6328 L37,318.6328 L38,318.6328 L38,318.1484 L38,318.1484 L38.625,317.6328 L39,317.6328 L39.375,317.6328 L40,318.1484 L40,318.6328 L40,320.6328 L40,321.1172 L39.375,321.6328 L39.375,321.6328 L39,321.6328 L38.625,321.6328 L38,321.1172 L38,321.1172 L38,320.6328 L37,320.6328 Z " fill="#000000"/><text fill="#000000" font-family="sans-serif" font-size="12" lengthAdjust="spacing" textLength="85" x="52.5" y="324.543">ProductCatalog</text><line style="stroke:#FFFFFF;stroke-width:1.5;" x1="24.5" x2="139.5" y1="335.6328" y2="335.6328"/><!--MD5=[a1db4bf20df23ac2cd9366d22a9e2860]
class ProductCategory--><rect codeLine="46" fill="#86C2BD" filter="url(#f1wij1c2uhwiy8)" height="40" id="ProductCategory" rx="10" ry="10" style="stroke:#FFFFFF;stroke-width:1.5;" width="123" x="175.5" y="303.6328"/><ellipse cx="190.5" cy="319.6328" fill="#E0A2A4" rx="11" ry="11" style="stroke:#FFFFFF;stroke-width:1.0;"/><path d="M189,320.6328 L189,322.6328 L193,322.6328 L193,321.6328 L193,321.1484 L193.625,320.6328 L194,320.6328 L194.375,320.6328 L195,321.1484 L195,321.6328 L195,324.6328 L187,324.6328 L186.5156,324.6328 L186,324.0078 L186,323.6328 L186,323.2578 L186.5156,322.6328 L187,322.6328 L187,322.6328 L187,316.6328 L187,316.6328 L186.5156,316.6328 L186,316.0078 L186,315.6328 L186,315.2578 L186.5156,314.6328 L187,314.6328 L195,314.6328 L195,317.6328 L195,318.1172 L194.375,318.6328 L194,318.6328 L193.625,318.6328 L193,318.1172 L193,317.6328 L193,316.6328 L189,316.6328 L189,318.6328 L190,318.6328 L190,318.1484 L190,318.1484 L190.625,317.6328 L191,317.6328 L191.375,317.6328 L192,318.1484 L192,318.6328 L192,320.6328 L192,321.1172 L191.375,321.6328 L191.375,321.6328 L191,321.6328 L190.625,321.6328 L190,321.1172 L190,321.1172 L190,320.6328 L189,320.6328 Z " fill="#000000"/><text fill="#000000" font-family="sans-serif" font-size="12" lengthAdjust="spacing" textLength="91" x="204.5" y="324.543">ProductCategory</text><line style="stroke:#FFFFFF;stroke-width:1.5;" x1="176.5" x2="297.5" y1="335.6328" y2="335.6328"/><!--MD5=[72136138052d025cffdce3c22fbd185f]
class Product--><rect codeLine="49" fill="#86C2BD" filter="url(#f1wij1c2uhwiy8)" height="53.8359" id="Product" rx="10" ry="10" style="stroke:#FFFFFF;stroke-width:1.5;" width="98" x="610" y="171.6328"/><ellipse cx="635.8" cy="187.6328" fill="#E0A2A4" rx="11" ry="11" style="stroke:#FFFFFF;stroke-width:1.0;"/><path d="M634.3,188.6328 L634.3,190.6328 L638.3,190.6328 L638.3,189.6328 L638.3,189.1484 L638.925,188.6328 L639.3,188.6328 L639.675,188.6328 L640.3,189.1484 L640.3,189.6328 L640.3,192.6328 L632.3,192.6328 L631.8156,192.6328 L631.3,192.0078 L631.3,191.6328 L631.3,191.2578 L631.8156,190.6328 L632.3,190.6328 L632.3,190.6328 L632.3,184.6328 L632.3,184.6328 L631.8156,184.6328 L631.3,184.0078 L631.3,183.6328 L631.3,183.2578 L631.8156,182.6328 L632.3,182.6328 L640.3,182.6328 L640.3,185.6328 L640.3,186.1172 L639.675,186.6328 L639.3,186.6328 L638.925,186.6328 L638.3,186.1172 L638.3,185.6328 L638.3,184.6328 L634.3,184.6328 L634.3,186.6328 L635.3,186.6328 L635.3,186.1484 L635.3,186.1484 L635.925,185.6328 L636.3,185.6328 L636.675,185.6328 L637.3,186.1484 L637.3,186.6328 L637.3,188.6328 L637.3,189.1172 L636.675,189.6328 L636.675,189.6328 L636.3,189.6328 L635.925,189.6328 L635.3,189.1172 L635.3,189.1172 L635.3,188.6328 L634.3,188.6328 Z " fill="#000000"/><text fill="#000000" font-family="sans-serif" font-size="12" lengthAdjust="spacing" textLength="42" x="652.2" y="192.543">Product</text><line style="stroke:#FFFFFF;stroke-width:1.5;" x1="611" x2="707" y1="203.6328" y2="203.6328"/><text fill="#000000" font-family="sans-serif" font-size="11" lengthAdjust="spacing" textLength="86" x="616" y="219.0518">-promotional code</text><rect fill="#86C2BD" filter="url(#f1wij1c2uhwiy8)" height="35.0938" rx="10" ry="10" style="stroke:#FFFFFF;stroke-width:1.5;" width="83" x="40.5" y="404.6328"/><text fill="#000000" font-family="sans-serif" font-size="12" lengthAdjust="spacing" textLength="69" x="47.5" y="419.0898">Product_List</text><line style="stroke:#FFFFFF;stroke-width:1.5;" x1="41.5" x2="122.5" y1="423.7266" y2="423.7266"/><rect fill="#86C2BD" filter="url(#f1wij1c2uhwiy8)" height="35.0938" rx="10" ry="10" style="stroke:#FFFFFF;stroke-width:1.5;" width="40" x="184" y="404.6328"/><text fill="#000000" font-family="sans-serif" font-size="12" lengthAdjust="spacing" textLength="26" x="191" y="419.0898">Type</text><line style="stroke:#FFFFFF;stroke-width:1.5;" x1="185" x2="223" y1="423.7266" y2="423.7266"/><rect fill="#86C2BD" filter="url(#f1wij1c2uhwiy8)" height="35.0938" rx="10" ry="10" style="stroke:#FFFFFF;stroke-width:1.5;" width="133" x="259.5" y="404.6328"/><text fill="#000000" font-family="sans-serif" font-size="12" lengthAdjust="spacing" textLength="119" x="266.5" y="419.0898">Category_Description</text><line style="stroke:#FFFFFF;stroke-width:1.5;" x1="260.5" x2="391.5" y1="423.7266" y2="423.7266"/><rect fill="#86C2BD" filter="url(#f1wij1c2uhwiy8)" height="35.0938" rx="10" ry="10" style="stroke:#FFFFFF;stroke-width:1.5;" width="75" x="333.5" y="306.1328"/><text fill="#000000" font-family="sans-serif" font-size="12" lengthAdjust="spacing" textLength="61" x="340.5" y="320.5898">Product_ID</text><line style="stroke:#FFFFFF;stroke-width:1.5;" x1="334.5" x2="407.5" y1="325.2266" y2="325.2266"/><rect fill="#86C2BD" filter="url(#f1wij1c2uhwiy8)" height="35.0938" rx="10" ry="10" style="stroke:#FFFFFF;stroke-width:1.5;" width="46" x="444" y="306.1328"/><text fill="#000000" font-family="sans-serif" font-size="12" lengthAdjust="spacing" textLength="32" x="451" y="320.5898">Photo</text><line style="stroke:#FFFFFF;stroke-width:1.5;" x1="445" x2="489" y1="325.2266" y2="325.2266"/><rect fill="#86C2BD" filter="url(#f1wij1c2uhwiy8)" height="35.0938" rx="10" ry="10" style="stroke:#FFFFFF;stroke-width:1.5;" width="42" x="525" y="306.1328"/><text fill="#000000" font-family="sans-serif" font-size="12" lengthAdjust="spacing" textLength="28" x="532" y="320.5898">Price</text><line style="stroke:#FFFFFF;stroke-width:1.5;" x1="526" x2="566" y1="325.2266" y2="325.2266"/><rect fill="#86C2BD" filter="url(#f1wij1c2uhwiy8)" height="35.0938" rx="10" ry="10" style="stroke:#FFFFFF;stroke-width:1.5;" width="113" x="602.5" y="306.1328"/><text fill="#000000" font-family="sans-serif" font-size="12" lengthAdjust="spacing" textLength="99" x="609.5" y="320.5898">Short_Description</text><line style="stroke:#FFFFFF;stroke-width:1.5;" x1="603.5" x2="714.5" y1="325.2266" y2="325.2266"/><rect fill="#86C2BD" filter="url(#f1wij1c2uhwiy8)" height="35.0938" rx="10" ry="10" style="stroke:#FFFFFF;stroke-width:1.5;" width="112" x="751" y="306.1328"/><text fill="#000000" font-family="sans-serif" font-size="12" lengthAdjust="spacing" textLength="98" x="758" y="320.5898">Long_Description</text><line style="stroke:#FFFFFF;stroke-width:1.5;" x1="752" x2="862" y1="325.2266" y2="325.2266"/><rect fill="#86C2BD" filter="url(#f1wij1c2uhwiy8)" height="35.0938" rx="10" ry="10" style="stroke:#FFFFFF;stroke-width:1.5;" width="137" x="898.5" y="306.1328"/><text fill="#000000" font-family="sans-serif" font-size="12" lengthAdjust="spacing" textLength="123" x="905.5" y="320.5898">Technical_Description</text><line style="stroke:#FFFFFF;stroke-width:1.5;" x1="899.5" x2="1034.5" y1="325.2266" y2="325.2266"/><rect fill="#86C2BD" filter="url(#f1wij1c2uhwiy8)" height="35.0938" rx="10" ry="10" style="stroke:#FFFFFF;stroke-width:1.5;" width="47" x="1070.5" y="306.1328"/><text fill="#000000" font-family="sans-serif" font-size="12" lengthAdjust="spacing" textLength="33" x="1077.5" y="320.5898">Brand</text><line style="stroke:#FFFFFF;stroke-width:1.5;" x1="1071.5" x2="1116.5" y1="325.2266" y2="325.2266"/><rect fill="#86C2BD" filter="url(#f1wij1c2uhwiy8)" height="35.0938" rx="10" ry="10" style="stroke:#FFFFFF;stroke-width:1.5;" width="71" x="1152.5" y="306.1328"/><text fill="#000000" font-family="sans-serif" font-size="12" lengthAdjust="spacing" textLength="57" x="1159.5" y="320.5898">Reference</text><line style="stroke:#FFFFFF;stroke-width:1.5;" x1="1153.5" x2="1222.5" y1="325.2266" y2="325.2266"/><rect fill="#86C2BD" filter="url(#f1wij1c2uhwiy8)" height="35.0938" rx="10" ry="10" style="stroke:#FFFFFF;stroke-width:1.5;" width="60" x="1259" y="306.1328"/><text fill="#000000" font-family="sans-serif" font-size="12" lengthAdjust="spacing" textLength="46" x="1266" y="320.5898">Barcode</text><line style="stroke:#FFFFFF;stroke-width:1.5;" x1="1260" x2="1318" y1="325.2266" y2="325.2266"/><!--MD5=[9cf2a4da59a474b759d00d8cfa4ba852]
link ProductCatalog to Product_List--><path codeLine="66" d="M82,343.7028 C82,359.5928 82,382.2428 82,398.9428 " fill="none" id="ProductCatalog-to-Product_List" style="stroke:#38555F;stroke-width:3.0;stroke-dasharray:1.0,3.0;"/><polygon fill="#38555F" points="82,404.3628,86,395.3628,82,399.3628,78,395.3628,82,404.3628" style="stroke:#38555F;stroke-width:3.0;"/><!--MD5=[e4bc8f14f680bfa6cfa822b395c2601c]
link ProductCategory to Type--><path codeLine="68" d="M230.48,343.7028 C225,359.7228 217.16,382.6428 211.44,399.3828 " fill="none" id="ProductCategory-to-Type" style="stroke:#38555F;stroke-width:3.0;stroke-dasharray:1.0,3.0;"/><polygon fill="#38555F" points="209.73,404.3628,216.4427,397.1559,211.3582,399.6353,208.8788,394.5508,209.73,404.3628" style="stroke:#38555F;stroke-width:3.0;"/><!--MD5=[522b086b13114725d4c2a5ebc96fb2b5]
link ProductCategory to Category_Description--><path codeLine="69" d="M254.58,343.7028 C269.75,360.1428 291.59,383.8328 307.12,400.6628 " fill="none" id="ProductCategory-to-Category_Description" style="stroke:#38555F;stroke-width:3.0;stroke-dasharray:1.0,3.0;"/><polygon fill="#38555F" points="310.53,404.3628,307.3692,395.0349,307.1404,400.6872,301.4882,400.4583,310.53,404.3628" style="stroke:#38555F;stroke-width:3.0;"/><!--MD5=[bb584071be3d4a25c592a5763758ba48]
link Product to Product_ID--><path codeLine="71" d="M609.82,220.6328 C554.46,244.2828 465.43,282.3028 413.14,304.6328 " fill="none" id="Product-to-Product_ID" style="stroke:#38555F;stroke-width:3.0;stroke-dasharray:1.0,3.0;"/><polygon fill="#38555F" points="408.51,306.6128,418.3576,306.77,413.1109,304.6553,415.2256,299.4086,408.51,306.6128" style="stroke:#38555F;stroke-width:3.0;"/><!--MD5=[d712a9affdb0a2e6fd883f05aa145395]
link Product to Photo--><path codeLine="72" d="M618.28,225.7228 C580.99,249.6128 526.81,284.3128 494.42,305.0628 " fill="none" id="Product-to-Photo" style="stroke:#38555F;stroke-width:3.0;stroke-dasharray:1.0,3.0;"/><polygon fill="#38555F" points="490.2,307.7728,499.9359,306.2857,494.4101,305.0755,495.6203,299.5496,490.2,307.7728" style="stroke:#38555F;stroke-width:3.0;"/><!--MD5=[5fa2e163e1a5922a0d0ebcb119c05bb7]
link Product to Price--><path codeLine="73" d="M639.32,225.7328 C628.01,240.2628 613.25,258.4228 599,273.6328 C589.62,283.6428 578.57,294.0528 569,302.6828 " fill="none" id="Product-to-Price" style="stroke:#38555F;stroke-width:3.0;stroke-dasharray:1.0,3.0;"/><polygon fill="#38555F" points="565.27,306.0328,574.6355,302.9853,568.9865,302.688,569.2838,297.039,565.27,306.0328" style="stroke:#38555F;stroke-width:3.0;"/><!--MD5=[a601ea676d8b4bcf22fbcdd3c4adab96]
link Product to Short_Description--><path codeLine="74" d="M659,225.7228 C659,248.0828 659,279.9228 659,300.9228 " fill="none" id="Product-to-Short_Description" style="stroke:#38555F;stroke-width:3.0;stroke-dasharray:1.0,3.0;"/><polygon fill="#38555F" points="659,306.0128,663,297.0128,659,301.0128,655,297.0128,659,306.0128" style="stroke:#38555F;stroke-width:3.0;"/><!--MD5=[967065629b77c5f1cf915e6c5a1c2199]
link Product to Long_Description--><path codeLine="75" d="M690.39,225.7228 C718.09,248.7428 757.89,281.8228 783.09,302.7628 " fill="none" id="Product-to-Long_Description" style="stroke:#38555F;stroke-width:3.0;stroke-dasharray:1.0,3.0;"/><polygon fill="#38555F" points="787,306.0128,782.6241,297.1895,783.1507,302.8218,777.5184,303.3483,787,306.0128" style="stroke:#38555F;stroke-width:3.0;"/><!--MD5=[a3f6be065c2d2062121c71ffd47ee82a]
link Product to Technical_Description--><path codeLine="76" d="M708.14,219.2628 C766.62,242.6128 863.52,281.3028 920.71,304.1428 " fill="none" id="Product-to-Technical_Description" style="stroke:#38555F;stroke-width:3.0;stroke-dasharray:1.0,3.0;"/><polygon fill="#38555F" points="925.44,306.0328,918.5506,298.9947,920.7927,304.1882,915.5992,306.4303,925.44,306.0328" style="stroke:#38555F;stroke-width:3.0;"/><!--MD5=[5aa13b7ab9f0c275d874c3b024766aa8]
link Product to Brand--><path codeLine="77" d="M708.06,209.6628 C783.43,225.7328 931.71,259.9028 1053,303.6328 C1057.23,305.1528 1061.62,306.9528 1065.88,308.8128 " fill="none" id="Product-to-Brand" style="stroke:#38555F;stroke-width:3.0;stroke-dasharray:1.0,3.0;"/><polygon fill="#38555F" points="1070.45,310.8628,1063.8736,303.5313,1065.8875,308.8175,1060.6012,310.8313,1070.45,310.8628" style="stroke:#38555F;stroke-width:3.0;"/><!--MD5=[a08fded9ab29299d2f06160dc61bc428]
link Product to Reference--><path codeLine="78" d="M708.29,207.8128 C795.42,222.8428 981.9,257.5828 1135,303.6328 C1139.04,304.8428 1143.22,306.1928 1147.38,307.5828 " fill="none" id="Product-to-Reference" style="stroke:#38555F;stroke-width:3.0;stroke-dasharray:1.0,3.0;"/><polygon fill="#38555F" points="1152.25,309.2428,1145.0188,302.5563,1147.5167,307.6318,1142.4411,310.1296,1152.25,309.2428" style="stroke:#38555F;stroke-width:3.0;"/><!--MD5=[d52d4675e9eec1727cacff8adb24bf93]
link Product to Barcode--><path codeLine="79" d="M708.11,204.7828 C809.34,216.1728 1047.93,247.1028 1241,303.6328 C1245.3,304.8928 1249.74,306.3828 1254.12,307.9628 " fill="none" id="Product-to-Barcode" style="stroke:#38555F;stroke-width:3.0;stroke-dasharray:1.0,3.0;"/><polygon fill="#38555F" points="1258.82,309.7128,1251.7791,302.8262,1254.1337,307.9697,1248.9901,310.3243,1258.82,309.7128" style="stroke:#38555F;stroke-width:3.0;"/><!--MD5=[dc24cfedc095d5c448d58e3fe65b7613]
reverse link Product to ProductCategory--><path codeLine="81" d="M596.75,207.8528 C539.68,216.4028 453.32,231.8928 381,255.6328 C342.36,268.3128 300.44,288.6228 271.85,303.5628 " fill="none" id="Product-backto-ProductCategory" style="stroke:#FFC5A1;stroke-width:3.0;"/><polygon fill="#D7E2DD" points="609.89,205.9328,603.3769,202.8377,598.0149,207.6594,604.528,210.7545,609.89,205.9328" style="stroke:#FFC5A1;stroke-width:3.0;"/><polygon fill="#000000" points="381.2038,266.2215,390.7107,266.4847,389.0498,260.8464,381.2038,266.2215" style="stroke:#000000;stroke-width:1.0;"/><text fill="#000000" font-family="sans-serif" font-size="13" lengthAdjust="spacing" textLength="85" x="395" y="270.1279">categorized as</text><text fill="#000000" font-family="sans-serif" font-size="13" lengthAdjust="spacing" textLength="5" x="596.9872" y="221.8102">*</text><text fill="#000000" font-family="sans-serif" font-size="13" lengthAdjust="spacing" textLength="7" x="274.0591" y="292.864">1</text><!--MD5=[16e79bc672ebfc752007de2ddeb2a075]
reverse link Product to ProductCatalog--><path codeLine="82" d="M596.56,204.6328 C518.75,211.7528 382.09,227.2328 268,255.6328 C218.54,267.9428 163.87,288.5228 126.68,303.6228 " fill="none" id="Product-backto-ProductCatalog" style="stroke:#FFC5A1;stroke-width:3.0;"/><polygon fill="#D7E2DD" points="609.93,203.4328,603.5976,199.983,597.9777,204.5014,604.31,207.9512,609.93,203.4328" style="stroke:#FFC5A1;stroke-width:3.0;"/><polygon fill="#000000" points="268.1074,265.8393,277.564,266.8505,276.3524,261.0989,268.1074,265.8393" style="stroke:#000000;stroke-width:1.0;"/><text fill="#000000" font-family="sans-serif" font-size="13" lengthAdjust="spacing" textLength="45" x="282" y="270.1279">listed in</text><text fill="#000000" font-family="sans-serif" font-size="13" lengthAdjust="spacing" textLength="5" x="597.0333" y="200.4774">*</text><text fill="#000000" font-family="sans-serif" font-size="13" lengthAdjust="spacing" textLength="7" x="131.7766" y="292.9416">1</text><!--MD5=[f4ac3eef77a913f03575d15882297a5d]
@startuml
hide methods
' ======= layout =========
skinparam backgroundColor #d7e2dd
skinparam titleBorderRoundCorner 15
skinparam titleFontSize 30
skinparam classAttributeIconSize 0
skinparam titleFontName Arial Black
skinparam titleFontColor #d55563

skinparam packageBackgroundColor #C3DBD9
skinparam packageBorderColor #
skinparam packageBorderThickness 40

skinparam roundcorner 20
skinparam stereotypeCBackgroundColor #e0a2a4
skinparam arrowThickness 3

skinparam class {
ArrowColor ffc5a1
BorderColor White
BackgroundColor #86c2bd
}

skinparam object {
ArrowColor ffc5a1
BorderColor White
BackgroundColor #86c2bd
}

' ======= title =========
center header


<font color=Black size=15><b>Built by DeezNuts ©</font>
endheader
title <b>AGGREGATE PRODUCT\n

' ======= aggregates =========

package "Aggregate Product" <<Frame>> {
    entity ProductCatalog{
    }

    entity ProductCategory{
    }

    entity Product{
        - promotional code
    }

    object Product_List
    object Type
    object Category_Description
    object Product_ID
    object Photo
    object Price
    object Short_Description
    object Long_Description
    object Technical_Description
    object Brand
    object Reference
    object Barcode

    ProductCatalog -down[dotted,#38555F]-> Product_List

    ProductCategory -down[dotted,#38555F]-> Type
    ProductCategory -down[dotted,#38555F]-> Category_Description

    Product -down[dotted,#38555F]-> Product_ID
    Product -down[dotted,#38555F]-> Photo
    Product -down[dotted,#38555F]-> Price
    Product -down[dotted,#38555F]-> Short_Description
    Product -down[dotted,#38555F]-> Long_Description
    Product -down[dotted,#38555F]-> Technical_Description
    Product -down[dotted,#38555F]-> Brand
    Product -down[dotted,#38555F]-> Reference
    Product -down[dotted,#38555F]-> Barcode

    Product "*" o- - "1" ProductCategory : categorized as >
    Product "*" o- - "1" ProductCatalog : listed in >
}

@enduml

@startuml
hide methods
skinparam backgroundColor #d7e2dd
skinparam titleBorderRoundCorner 15
skinparam titleFontSize 30
skinparam classAttributeIconSize 0
skinparam titleFontName Arial Black
skinparam titleFontColor #d55563

skinparam packageBackgroundColor #C3DBD9
skinparam packageBorderColor #
skinparam packageBorderThickness 40

skinparam roundcorner 20
skinparam stereotypeCBackgroundColor #e0a2a4
skinparam arrowThickness 3

skinparam class {
ArrowColor ffc5a1
BorderColor White
BackgroundColor #86c2bd
}

skinparam object {
ArrowColor ffc5a1
BorderColor White
BackgroundColor #86c2bd
}

center header


<font color=Black size=15><b>Built by DeezNuts ©</font>
endheader
title <b>AGGREGATE PRODUCT\n


package "Aggregate Product" <<Frame>> {
    entity ProductCatalog{
    }

    entity ProductCategory{
    }

    entity Product{
        - promotional code
    }

    object Product_List
    object Type
    object Category_Description
    object Product_ID
    object Photo
    object Price
    object Short_Description
    object Long_Description
    object Technical_Description
    object Brand
    object Reference
    object Barcode

    ProductCatalog -down[dotted,#38555F]-> Product_List

    ProductCategory -down[dotted,#38555F]-> Type
    ProductCategory -down[dotted,#38555F]-> Category_Description

    Product -down[dotted,#38555F]-> Product_ID
    Product -down[dotted,#38555F]-> Photo
    Product -down[dotted,#38555F]-> Price
    Product -down[dotted,#38555F]-> Short_Description
    Product -down[dotted,#38555F]-> Long_Description
    Product -down[dotted,#38555F]-> Technical_Description
    Product -down[dotted,#38555F]-> Brand
    Product -down[dotted,#38555F]-> Reference
    Product -down[dotted,#38555F]-> Barcode

    Product "*" o- - "1" ProductCategory : categorized as >
    Product "*" o- - "1" ProductCatalog : listed in >
}

@enduml

PlantUML version 1.2021.11(Sat Oct 02 14:26:11 BST 2021)
(GPL source distribution)
Java Runtime: OpenJDK Runtime Environment
JVM: OpenJDK 64-Bit Server VM
Default Encoding: Cp1252
Language: pt
Country: PT
--></g></svg>