<?xml version="1.0" encoding="UTF-8" standalone="no"?><svg xmlns="http://www.w3.org/2000/svg" xmlns:xlink="http://www.w3.org/1999/xlink" contentScriptType="application/ecmascript" contentStyleType="text/css" height="348px" preserveAspectRatio="none" style="width:699px;height:348px;background:#D7E2DD;" version="1.1" viewBox="0 0 699 348" width="699px" zoomAndPan="magnify"><defs><filter height="300%" id="f155jl9a0q9qnq" width="300%" x="-1" y="-1"><feGaussianBlur result="blurOut" stdDeviation="2.0"/><feColorMatrix in="blurOut" result="blurOut2" type="matrix" values="0 0 0 0 0 0 0 0 0 0 0 0 0 0 0 0 0 0 .4 0"/><feOffset dx="4.0" dy="4.0" in="blurOut2" result="blurOut3"/><feBlend in="SourceGraphic" in2="blurOut3" mode="normal"/></filter></defs><g><text fill="#888888" font-family="sans-serif" font-size="10" lengthAdjust="spacing" textLength="0" x="344.5" y="10.3809"/><text fill="#888888" font-family="sans-serif" font-size="10" lengthAdjust="spacing" textLength="0" x="344.5" y="22.959"/><text fill="#000000" font-family="sans-serif" font-size="15" font-weight="bold" lengthAdjust="spacing" textLength="142" x="272" y="40.7275">Built by DeezNuts ©</text><text fill="#D55563" font-family="Arial Black" font-size="30" font-weight="bold" lengthAdjust="spacing" textLength="428" x="129" y="77.041">AGGREGATE CUSTOMER</text><text fill="#D55563" font-family="Arial Black" font-size="30" lengthAdjust="spacing" textLength="0" x="348" y="119.3457"/><!--MD5=[e43b054f55165e9e8d4409b7864f8a12]
cluster Aggregate Customer--><rect fill="#C3DBD9" filter="url(#f155jl9a0q9qnq)" height="201" rx="10" ry="10" style="stroke:#FFFFFF;stroke-width:1.5;" width="680" x="7" y="135.6328"/><path d="M162,135.6328 L162,146.2422 L152,156.2422 L7,156.2422 " fill="none" style="stroke:#FFFFFF;stroke-width:1.5;"/><text fill="#000000" font-family="sans-serif" font-size="14" font-weight="bold" lengthAdjust="spacing" textLength="145" x="10" y="151.166">Aggregate Customer</text><!--MD5=[2ce0c9fb7f55b1e256ab28a8ea6b25ec]
class Customer--><rect codeLine="43" fill="#86C2BD" filter="url(#f155jl9a0q9qnq)" height="53.8359" id="Customer" rx="10" ry="10" style="stroke:#FFFFFF;stroke-width:1.5;" width="87" x="273.5" y="171.6328"/><ellipse cx="288.5" cy="187.6328" fill="#E0A2A4" rx="11" ry="11" style="stroke:#FFFFFF;stroke-width:1.0;"/><path d="M287,188.6328 L287,190.6328 L291,190.6328 L291,189.6328 L291,189.1484 L291.625,188.6328 L292,188.6328 L292.375,188.6328 L293,189.1484 L293,189.6328 L293,192.6328 L285,192.6328 L284.5156,192.6328 L284,192.0078 L284,191.6328 L284,191.2578 L284.5156,190.6328 L285,190.6328 L285,190.6328 L285,184.6328 L285,184.6328 L284.5156,184.6328 L284,184.0078 L284,183.6328 L284,183.2578 L284.5156,182.6328 L285,182.6328 L293,182.6328 L293,185.6328 L293,186.1172 L292.375,186.6328 L292,186.6328 L291.625,186.6328 L291,186.1172 L291,185.6328 L291,184.6328 L287,184.6328 L287,186.6328 L288,186.6328 L288,186.1484 L288,186.1484 L288.625,185.6328 L289,185.6328 L289.375,185.6328 L290,186.1484 L290,186.6328 L290,188.6328 L290,189.1172 L289.375,189.6328 L289.375,189.6328 L289,189.6328 L288.625,189.6328 L288,189.1172 L288,189.1172 L288,188.6328 L287,188.6328 Z " fill="#000000"/><text fill="#000000" font-family="sans-serif" font-size="12" lengthAdjust="spacing" textLength="55" x="302.5" y="192.543">Customer</text><line style="stroke:#FFFFFF;stroke-width:1.5;" x1="274.5" x2="359.5" y1="203.6328" y2="203.6328"/><text fill="#000000" font-family="sans-serif" font-size="11" lengthAdjust="spacing" textLength="46" x="279.5" y="219.0518">-birthdate</text><rect fill="#86C2BD" filter="url(#f155jl9a0q9qnq)" height="35.0938" rx="10" ry="10" style="stroke:#FFFFFF;stroke-width:1.5;" width="81" x="23.5" y="285.6328"/><text fill="#000000" font-family="sans-serif" font-size="12" lengthAdjust="spacing" textLength="67" x="30.5" y="300.0898">CustomerID</text><line style="stroke:#FFFFFF;stroke-width:1.5;" x1="24.5" x2="103.5" y1="304.7266" y2="304.7266"/><rect fill="#86C2BD" filter="url(#f155jl9a0q9qnq)" height="35.0938" rx="10" ry="10" style="stroke:#FFFFFF;stroke-width:1.5;" width="48" x="140" y="285.6328"/><text fill="#000000" font-family="sans-serif" font-size="12" lengthAdjust="spacing" textLength="34" x="147" y="300.0898">Name</text><line style="stroke:#FFFFFF;stroke-width:1.5;" x1="141" x2="187" y1="304.7266" y2="304.7266"/><rect fill="#86C2BD" filter="url(#f155jl9a0q9qnq)" height="35.0938" rx="10" ry="10" style="stroke:#FFFFFF;stroke-width:1.5;" width="35" x="223.5" y="285.6328"/><text fill="#000000" font-family="sans-serif" font-size="12" lengthAdjust="spacing" textLength="21" x="230.5" y="300.0898">VAT</text><line style="stroke:#FFFFFF;stroke-width:1.5;" x1="224.5" x2="257.5" y1="304.7266" y2="304.7266"/><rect fill="#86C2BD" filter="url(#f155jl9a0q9qnq)" height="35.0938" rx="10" ry="10" style="stroke:#FFFFFF;stroke-width:1.5;" width="46" x="294" y="285.6328"/><text fill="#000000" font-family="sans-serif" font-size="12" lengthAdjust="spacing" textLength="32" x="301" y="300.0898">Email</text><line style="stroke:#FFFFFF;stroke-width:1.5;" x1="295" x2="339" y1="304.7266" y2="304.7266"/><rect fill="#86C2BD" filter="url(#f155jl9a0q9qnq)" height="35.0938" rx="10" ry="10" style="stroke:#FFFFFF;stroke-width:1.5;" width="95" x="375.5" y="285.6328"/><text fill="#000000" font-family="sans-serif" font-size="12" lengthAdjust="spacing" textLength="81" x="382.5" y="300.0898">PhoneNumber</text><line style="stroke:#FFFFFF;stroke-width:1.5;" x1="376.5" x2="469.5" y1="304.7266" y2="304.7266"/><rect fill="#86C2BD" filter="url(#f155jl9a0q9qnq)" height="35.0938" rx="10" ry="10" style="stroke:#FFFFFF;stroke-width:1.5;" width="74" x="506" y="285.6328"/><text fill="#000000" font-family="sans-serif" font-size="12" lengthAdjust="spacing" textLength="60" x="513" y="300.0898">Addresses</text><line style="stroke:#FFFFFF;stroke-width:1.5;" x1="507" x2="579" y1="304.7266" y2="304.7266"/><rect fill="#86C2BD" filter="url(#f155jl9a0q9qnq)" height="35.0938" rx="10" ry="10" style="stroke:#FFFFFF;stroke-width:1.5;" width="55" x="615.5" y="285.6328"/><text fill="#000000" font-family="sans-serif" font-size="12" lengthAdjust="spacing" textLength="41" x="622.5" y="300.0898">Gender</text><line style="stroke:#FFFFFF;stroke-width:1.5;" x1="616.5" x2="669.5" y1="304.7266" y2="304.7266"/><!--MD5=[be14ee3937ee11dc31021ac29cf5dbcb]
link Customer to CustomerID--><path codeLine="54" d="M273.22,217.3728 C227.41,235.9228 155.84,264.9228 109.43,283.7328 " fill="none" id="Customer-to-CustomerID" style="stroke:#38555F;stroke-width:3.0;stroke-dasharray:1.0,3.0;"/><polygon fill="#38555F" points="104.74,285.6328,114.584,285.9415,109.3705,283.7463,111.5656,278.5328,104.74,285.6328" style="stroke:#38555F;stroke-width:3.0;"/><!--MD5=[0a8270db3671c85e503ce247627dc826]
link Customer to Name--><path codeLine="55" d="M278,225.7628 C251.32,243.6328 216.57,266.9128 192.49,283.0528 " fill="none" id="Customer-to-Name" style="stroke:#38555F;stroke-width:3.0;stroke-dasharray:1.0,3.0;"/><polygon fill="#38555F" points="188.12,285.9728,197.8246,284.2933,192.2758,283.1927,193.3764,277.6439,188.12,285.9728" style="stroke:#38555F;stroke-width:3.0;"/><!--MD5=[e21c05835871e6a5cb5a81425ddc1343]
link Customer to VAT--><path codeLine="56" d="M297.63,225.7628 C284.92,242.8928 268.53,265.0028 256.65,281.0228 " fill="none" id="Customer-to-VAT" style="stroke:#38555F;stroke-width:3.0;stroke-dasharray:1.0,3.0;"/><polygon fill="#38555F" points="253.43,285.3628,261.9914,280.4942,256.3979,281.339,255.5532,275.7455,253.43,285.3628" style="stroke:#38555F;stroke-width:3.0;"/><!--MD5=[d37020313d60b0dc9e19f240715ef155]
link Customer to Email--><path codeLine="57" d="M317,225.7628 C317,242.6028 317,264.2528 317,280.1928 " fill="none" id="Customer-to-Email" style="stroke:#38555F;stroke-width:3.0;stroke-dasharray:1.0,3.0;"/><polygon fill="#38555F" points="317,285.3628,321,276.3628,317,280.3628,313,276.3628,317,285.3628" style="stroke:#38555F;stroke-width:3.0;"/><!--MD5=[fd4380d65360519d48eed8286565e90d]
link Customer to PhoneNumber--><path codeLine="58" d="M344.02,225.7628 C362.04,243.1928 385.39,265.7628 402.01,281.8328 " fill="none" id="Customer-to-PhoneNumber" style="stroke:#38555F;stroke-width:3.0;stroke-dasharray:1.0,3.0;"/><polygon fill="#38555F" points="405.66,285.3628,401.9579,276.2362,402.0608,281.8921,396.4049,281.995,405.66,285.3628" style="stroke:#38555F;stroke-width:3.0;"/><!--MD5=[7bc3708bf15fc25698e7123d80192af9]
link Customer to Addresses--><path codeLine="59" d="M360.58,219.3928 C401.25,237.8428 461.52,265.1728 501.51,283.3128 " fill="none" id="Customer-to-Addresses" style="stroke:#38555F;stroke-width:3.0;stroke-dasharray:1.0,3.0;"/><polygon fill="#38555F" points="506.28,285.4828,499.7506,278.1094,501.7306,283.4084,496.4316,285.3884,506.28,285.4828" style="stroke:#38555F;stroke-width:3.0;"/><!--MD5=[cf5567b3002e4b9a664bc30512620907]
link Customer to Gender--><path codeLine="60" d="M360.56,212.1628 C415.99,228.2928 514.58,257.5928 598,285.6328 C602.08,287.0028 606.35,288.4928 610.57,290.0028 " fill="none" id="Customer-to-Gender" style="stroke:#38555F;stroke-width:3.0;stroke-dasharray:1.0,3.0;"/><polygon fill="#38555F" points="615.48,291.7728,608.3772,284.9501,610.7781,290.0721,605.6561,292.4731,615.48,291.7728" style="stroke:#38555F;stroke-width:3.0;"/><!--MD5=[9c361272ac08fa25d75340edf6b21e1c]
@startuml
hide methods
' ======= layout =========
skinparam backgroundColor #d7e2dd
skinparam titleBorderRoundCorner 15
skinparam titleFontSize 30
skinparam classAttributeIconSize 0
skinparam titleFontName Arial Black
skinparam titleFontColor #d55563

skinparam packageBackgroundColor #C3DBD9
skinparam packageBorderColor #
skinparam packageBorderThickness 40

skinparam roundcorner 20
skinparam stereotypeCBackgroundColor #e0a2a4
skinparam arrowThickness 3

skinparam class {
ArrowColor ffc5a1
BorderColor White
BackgroundColor #86c2bd
}

skinparam object {
ArrowColor ffc5a1
BorderColor White
BackgroundColor #86c2bd
}

' ======= title =========
center header


<font color=Black size=15><b>Built by DeezNuts ©</font>
endheader
title <b>AGGREGATE CUSTOMER\n

' ======= aggregates =========

package "Aggregate Customer" <<Frame>> {
    entity Customer{
        - birthdate
    }
    object CustomerID
    object Name
    object VAT
    object Email
    object PhoneNumber
    object Addresses
    object Gender

    Customer -down[dotted,#38555F]-> CustomerID
    Customer -down[dotted,#38555F]-> Name
    Customer -down[dotted,#38555F]-> VAT
    Customer -down[dotted,#38555F]-> Email
    Customer -down[dotted,#38555F]-> PhoneNumber
    Customer -down[dotted,#38555F]-> Addresses
    Customer -down[dotted,#38555F]-> Gender
}


@enduml

@startuml
hide methods
skinparam backgroundColor #d7e2dd
skinparam titleBorderRoundCorner 15
skinparam titleFontSize 30
skinparam classAttributeIconSize 0
skinparam titleFontName Arial Black
skinparam titleFontColor #d55563

skinparam packageBackgroundColor #C3DBD9
skinparam packageBorderColor #
skinparam packageBorderThickness 40

skinparam roundcorner 20
skinparam stereotypeCBackgroundColor #e0a2a4
skinparam arrowThickness 3

skinparam class {
ArrowColor ffc5a1
BorderColor White
BackgroundColor #86c2bd
}

skinparam object {
ArrowColor ffc5a1
BorderColor White
BackgroundColor #86c2bd
}

center header


<font color=Black size=15><b>Built by DeezNuts ©</font>
endheader
title <b>AGGREGATE CUSTOMER\n


package "Aggregate Customer" <<Frame>> {
    entity Customer{
        - birthdate
    }
    object CustomerID
    object Name
    object VAT
    object Email
    object PhoneNumber
    object Addresses
    object Gender

    Customer -down[dotted,#38555F]-> CustomerID
    Customer -down[dotted,#38555F]-> Name
    Customer -down[dotted,#38555F]-> VAT
    Customer -down[dotted,#38555F]-> Email
    Customer -down[dotted,#38555F]-> PhoneNumber
    Customer -down[dotted,#38555F]-> Addresses
    Customer -down[dotted,#38555F]-> Gender
}


@enduml

PlantUML version 1.2021.11(Sat Oct 02 14:26:11 BST 2021)
(GPL source distribution)
Java Runtime: OpenJDK Runtime Environment
JVM: OpenJDK 64-Bit Server VM
Default Encoding: Cp1252
Language: pt
Country: PT
--></g></svg>